# xmcd
#
# Track frame offsets: 
#        150
#        11542
#        24321
#        38180
#        55342
#        69434
#        82261
#        94370
#        116990
#        131503
#        147174
#        159686
#
# Disc length: 2314 seconds
#
# Revision: 0
# Processed by: cddbd v1.5.2PL0 Copyright (c) Steve Scherf et al.
# Submitted via: ExactAudioCopy v0.99pb4
#
DISCID=a709080c
DTITLE=Atlanta - The First
DYEAR=1900
DGENRE=Country
TTITLE0=Not counting you
TTITLE1=Redneck Rhythm´n Blues
TTITLE2=Honky tonk Dancin Machine
TTITLE3=Heaven in my woman´s Eyes
TTITLE4=Didn´t we shine
TTITLE5=Top of the world
TTITLE6=Singing the Blues
TTITLE7=GrenzFall
TTITLE8=Eiskalt abserviert
TTITLE9=Take it easy
TTITLE10=Kentucky Dreaming
TTITLE11=Ich Glaube
EXTD=
EXTT0=
EXTT1=
EXTT2=
EXTT3=
EXTT4=
EXTT5=
EXTT6=
EXTT7=
EXTT8=
EXTT9=
EXTT10=
EXTT11=
PLAYORDER=
